<?xml version="1.0" encoding="UTF-8"?>
<svg width="71px" height="71px" viewBox="0 0 71 71" version="1.1" xmlns="http://www.w3.org/2000/svg" xmlns:xlink="http://www.w3.org/1999/xlink">
    <!-- Generator: Sketch 62 (91390) - https://sketch.com -->
    <title>document</title>
    <desc>Created with Sketch.</desc>
    <g id="Page-1" stroke="none" stroke-width="1" fill="none" fill-rule="evenodd">
        <g id="Home_Page_New" transform="translate(-225.000000, -1764.000000)" fill-rule="nonzero">
            <g id="Group-4" transform="translate(183.000000, 1702.000000)">
                <g id="document" transform="translate(42.000000, 62.000000)">
                    <path d="M50.3006998,70.862138 L7.81055689,70.862138 C3.53521366,70.862138 0.0692013067,67.3961257 0.0692013067,63.1207824 L0.0692013067,7.74135558 C0.0692013067,3.46601235 3.53521366,7.85191194e-15 7.81055689,7.85191194e-15 L50.3006998,7.85191194e-15 C54.576043,7.85191194e-15 58.0415148,3.46601235 58.0415148,7.74135558 L58.0415148,63.1207824 C58.0415148,67.3961257 54.576043,70.862138 50.3006998,70.862138 Z" id="Path" fill="#EEEEED"></path>
                    <path d="M58.0415148,15.0869661 L20.7928301,15.0869661 C20.5841449,9.15025087 20.5890107,3.8931141 20.6079329,0 L7.81055689,0 C3.53521366,0 0.0692013067,3.46601235 0.0692013067,7.74135558 L0.0692013067,63.1207824 C0.0692013067,67.3961257 3.53521366,70.862138 7.81055689,70.862138 L36.3220358,70.862138 C25.3282188,61.3907498 21.9865527,38.3461741 20.9988121,19.7715702 L58.0415148,19.7715702 L58.0415148,15.0869661 Z" id="Path" fill="#DFDFDD"></path>
                    <g id="Group" transform="translate(9.549780, 26.296497)" fill="#495059">
                        <path d="M37.8931217,2.17821922 L1.11803361,2.17821922 C0.544419689,2.17821922 0.0800140108,1.71381354 0.0800140108,1.14019962 C0.0800140108,0.567126299 0.544419689,0.10218002 1.11803361,0.10218002 L37.8931217,0.10218002 C38.4667357,0.10218002 38.9311413,0.567126299 38.9311413,1.14019962 C38.9311413,1.71381354 38.4667357,2.17821922 37.8931217,2.17821922 Z" id="Path"></path>
                        <path d="M37.8931217,11.3679366 L1.11803361,11.3679366 C0.544419689,11.3679366 0.0800140108,10.9029903 0.0800140108,10.329917 C0.0800140108,9.75684364 0.544419689,9.29189736 1.11803361,9.29189736 L37.8931217,9.29189736 C38.4667357,9.29189736 38.9311413,9.75684364 38.9311413,10.329917 C38.9311413,10.9029903 38.4667357,11.3679366 37.8931217,11.3679366 Z" id="Path"></path>
                        <path d="M37.8931217,20.5576538 L1.11803361,20.5576538 C0.544419689,20.5576538 0.0800140108,20.0932482 0.0800140108,19.5196342 C0.0800140108,18.9465608 0.544419689,18.4816146 1.11803361,18.4816146 L37.8931217,18.4816146 C38.4667357,18.4816146 38.9311413,18.9465608 38.9311413,19.5196342 C38.9311413,20.0932482 38.4667357,20.5576538 37.8931217,20.5576538 Z" id="Path"></path>
                        <path d="M11.073831,29.7473711 L1.11803361,29.7473711 C0.544419689,29.7473711 0.0800140108,29.2829654 0.0800140108,28.7093515 C0.0800140108,28.1362782 0.544419689,27.6713319 1.11803361,27.6713319 L11.073831,27.6713319 C11.6469043,27.6713319 12.1118506,28.1362782 12.1118506,28.7093515 C12.1118506,29.2829654 11.6469043,29.7473711 11.073831,29.7473711 Z" id="Path"></path>
                    </g>
                    <path d="M58.0415148,15.0869661 L0.0692013067,15.0869661 L0.0692013067,7.74135558 C0.0692013067,3.46601235 3.53521366,0 7.81055689,0 L50.3006998,0 C54.576043,0 58.0415148,3.46601235 58.0415148,7.74135558 L58.0415148,15.0869661 Z" id="Path" fill="#EB8D9A"></path>
                    <path d="M69.0061374,15.9979365 L62.4698576,11.4214595 C60.4284191,9.99147925 57.6138723,10.4877824 56.183892,12.5297616 L53.1460629,16.8683591 L67.0766104,26.6224996 L70.1144395,22.2839019 C71.5444197,20.2419228 71.0481165,17.4279166 69.0061374,15.9979365 Z" id="Path" fill="#EB8D9A"></path>
                    <path d="M53.1460629,16.8683591 L35.4748604,42.1052106 C33.3188072,45.1846688 32.0110106,48.7771898 31.6833857,52.5221698 L31.2670966,57.2721908 C31.0151606,60.1505327 33.9740571,62.2222468 36.592894,61.0009518 L40.9136506,58.9854638 C44.3207338,57.3965369 47.2493547,54.9388093 49.4059485,51.8593511 L67.0766104,26.6224996 L53.1460629,16.8683591 Z" id="Path" fill="#80BBE6"></path>
                    <path d="M35.475401,42.1052106 C33.3188072,45.1846688 32.0110106,48.7771898 31.6833857,52.5221698 L31.2670966,57.2721908 C31.0151606,60.1505327 33.9740571,62.2222468 36.592894,61.0009518 L38.6543361,60.0397025 C33.1831077,55.7681436 36.8091481,43.7281976 40.1005353,35.4991891 L35.475401,42.1052106 Z" id="Path" fill="#76ACD4"></path>
                    <polygon id="Path" fill="#76ACD4" points="55.2296709 26.9122801 56.9305094 28.1027587 42.3187616 48.9707372 40.6179231 47.7802584"></polygon>
                    <polygon id="Path" fill="#495059" points="53.1482255 16.8705216 67.0798541 26.6252027 63.0461749 32.3851303 49.1150868 22.6304492"></polygon>
                    <path d="M34.5595651,43.5351909 C32.9490127,46.2740487 31.9618129,49.3426942 31.6833857,52.5221698 L31.2670966,57.2721908 C31.0151606,60.1505327 33.9740571,62.2222468 36.592894,61.0009518 L40.9136506,58.9854638 C43.8065897,57.6365789 46.3519002,55.6589354 48.3754978,53.2087766 L34.5595651,43.5351909 Z" id="Path" fill="#F8E47C"></path>
                    <path d="M34.5595651,43.5351909 C32.9490127,46.2740487 31.9618129,49.3426942 31.6833857,52.5221698 L31.2670966,57.2721908 C31.0151606,60.1505327 33.9740571,62.2222468 36.592894,61.0009518 L38.6543361,60.0397025 C35.1223663,57.2824628 35.3813306,51.2878996 36.8945686,45.1700717 L34.5595651,43.5351909 Z" id="Path" fill="#EDD35F"></path>
                    <path d="M31.6823044,52.529198 L31.2670966,57.2721908 C31.0151606,60.1505327 33.9740571,62.2222468 36.592894,61.0009518 L40.907163,58.9887076 L31.6823044,52.529198 Z" id="Path" fill="#495059"></path>
                    <path d="M36.126326,55.6405537 L31.6823044,52.529198 L31.2670966,57.2721908 C31.0151606,60.1505327 33.9740571,62.2222468 36.592894,61.0009518 L38.6543361,60.0397025 C37.3059919,58.9870857 36.5107175,57.463035 36.126326,55.6405537 L36.126326,55.6405537 Z" id="Path" fill="#41464F"></path>
                    <path d="M20.6079329,0 L7.81055689,0 C3.53521366,0 0.0692013067,3.46601235 0.0692013067,7.74135558 L0.0692013067,15.0869661 L20.7928301,15.0869661 C20.5841449,9.14971027 20.5890107,3.8936547 20.6079329,0 Z" id="Path" fill="#D67C88"></path>
                    <path d="M38.2553473,4.79705617 L19.8559093,4.79705617 C18.7416601,4.79705617 17.8387993,5.70045764 17.8387993,6.81416617 L17.8387993,8.27225929 C17.8387993,9.38650842 18.7416601,10.2893693 19.8559093,10.2893693 L38.2553473,10.2893693 C39.3690559,10.2893693 40.2724573,9.38650842 40.2724573,8.27225929 L40.2724573,6.81416617 C40.2724573,5.70045764 39.3690559,4.79705617 38.2553473,4.79705617 Z" id="Path" fill="#FFFFFF"></path>
                    <path d="M20.6025265,4.79705617 L19.8559093,4.79705617 C18.7416601,4.79705617 17.8387993,5.70045764 17.8387993,6.81416617 L17.8387993,8.27225929 C17.8387993,9.38650842 18.7416601,10.2893693 19.8559093,10.2893693 L20.6636183,10.2893693 C20.6263145,8.33929805 20.6090141,6.4984352 20.6025265,4.79705617 Z" id="Path" fill="#EEEEED"></path>
                </g>
            </g>
        </g>
    </g>
</svg>