<?xml version="1.0" encoding="UTF-8"?>
<svg width="73px" height="74px" viewBox="0 0 73 74" version="1.1" xmlns="http://www.w3.org/2000/svg" xmlns:xlink="http://www.w3.org/1999/xlink">
    <!-- Generator: Sketch 62 (91390) - https://sketch.com -->
    <title>certificate (1)</title>
    <desc>Created with Sketch.</desc>
    <g id="Page-1" stroke="none" stroke-width="1" fill="none" fill-rule="evenodd">
        <g id="Home_Page_New" transform="translate(-1293.000000, -2208.000000)" fill-rule="nonzero">
            <g id="Group-4-Copy-3" transform="translate(1247.000000, 2147.000000)">
                <g id="certificate-(1)" transform="translate(46.000000, 61.000000)">
                    <g id="Group">
                        <g id="Path">
                            <g>
                                <path d="M45.3070673,0 L15.8390653,0 C15.207437,0 14.590073,0.13736633 14.0267712,0.395552267 C13.7802821,0.508526445 13.6212339,0.754017051 13.6212339,1.02504096 L13.6212339,10.7980206 C13.6212339,12.2876536 12.4136084,13.4952791 10.9239754,13.4952791 L1.15099576,13.4952791 C0.879829203,13.4952791 0.634338597,13.6543273 0.521507063,13.9008164 C0.263321127,14.4641182 0.125954797,15.0816248 0.125954797,15.7131105 L0.125954797,68.6831649 C0.125954797,71.0860059 2.07376086,73.0338119 4.4766018,73.0338119 L45.3070673,73.0338119 C47.7099082,73.0338119 49.6577143,71.0860059 49.6577143,68.6831649 L49.6577143,4.350647 C49.6577143,1.94780606 47.7097656,0 45.3070673,0 Z" fill="#CBECFF"></path>
                                <path d="M53.2285256,0 L43.8864741,0 C46.289315,0 48.2371211,1.94780606 48.2371211,4.350647 L48.2371211,68.6831649 C48.2371211,71.0860059 46.289315,73.0338119 43.8864741,73.0338119 L53.2285256,73.0338119 C55.6313666,73.0338119 57.5791726,71.0860059 57.5791726,68.6831649 L57.5791726,4.350647 C57.5791726,1.94780606 55.6313666,0 53.2285256,0 Z" fill="#BAE2F9"></path>
                                <path d="M1.40019511,12.6368465 L12.7628013,1.27424032 C13.1348173,0.902224337 13.5673144,0.604525967 14.0370416,0.390845009 L14.0370416,11.2138283 C14.0370416,12.7034613 12.8294161,13.9110868 11.3397831,13.9110868 L0.516799806,13.9110868 C0.730623408,13.4412169 1.02817913,13.0088625 1.40019511,12.6368465 Z" fill="#E28086"></path>
                            </g>
                            <path d="M46.8688782,13.9110868 L24.2435168,13.9110868 C23.487788,13.9110868 22.8751314,13.2984301 22.8751314,12.5427013 L22.8751314,8.96675479 C22.8751314,8.21102601 23.487788,7.59836933 24.2435168,7.59836933 L46.8688782,7.59836933 C47.624607,7.59836933 48.2372637,8.21102601 48.2372637,8.96675479 L48.2372637,12.5427013 C48.2372637,13.2984301 47.624607,13.9110868 46.8688782,13.9110868 Z" fill="#CBE2FF"></path>
                            <g transform="translate(7.274852, 25.533305)" fill="#407093">
                                <path d="M29.3650129,2.24079717 L1.15313542,2.24079717 C0.544472774,2.24079717 0.0510666107,1.74739101 0.0510666107,1.13872836 C0.0510666107,0.530065713 0.54433013,0.0366595501 1.15313542,0.0366595501 L29.3650129,0.0366595501 C29.9736755,0.0366595501 30.4670817,0.530065713 30.4670817,1.13872836 C30.4670817,1.74739101 29.9736755,2.24079717 29.3650129,2.24079717 Z"></path>
                                <path d="M29.3650129,9.9845209 L1.15313542,9.9845209 C0.544472774,9.9845209 0.0510666107,9.49111474 0.0510666107,8.88245209 C0.0510666107,8.27378944 0.54433013,7.78038328 1.15313542,7.78038328 L29.3650129,7.78038328 C29.9736755,7.78038328 30.4670817,8.27378944 30.4670817,8.88245209 C30.4670817,9.49111474 29.9736755,9.9845209 29.3650129,9.9845209 Z"></path>
                                <path d="M29.3650129,17.7279593 L1.15313542,17.7279593 C0.544472774,17.7279593 0.0510666107,17.2345532 0.0510666107,16.6258905 C0.0510666107,16.0172279 0.54433013,15.5238217 1.15313542,15.5238217 L29.3650129,15.5238217 C29.9736755,15.5238217 30.4670817,16.0172279 30.4670817,16.6258905 C30.4670817,17.2345532 29.9736755,17.7279593 29.3650129,17.7279593 Z"></path>
                                <path d="M29.3650129,25.4715404 L1.15313542,25.4715404 C0.544472774,25.4715404 0.0510666107,24.9781343 0.0510666107,24.3694716 C0.0510666107,23.760809 0.54433013,23.2674028 1.15313542,23.2674028 L29.3650129,23.2674028 C29.9736755,23.2674028 30.4670817,23.760809 30.4670817,24.3694716 C30.4670817,24.9781343 29.9736755,25.4715404 29.3650129,25.4715404 Z"></path>
                                <path d="M15.2951631,36.8200248 L1.15313542,36.8200248 C0.544472774,36.8200248 0.0510666107,36.3266187 0.0510666107,35.717956 C0.0510666107,35.1092934 0.54433013,34.6158872 1.15313542,34.6158872 L15.2953058,34.6158872 C15.9039684,34.6158872 16.3973746,35.1092934 16.3973746,35.717956 C16.3973746,36.3266187 15.9039684,36.8200248 15.2951631,36.8200248 Z"></path>
                            </g>
                        </g>
                        <path d="M62.2691701,64.7139484 L58.227633,62.2259489 C57.8299411,61.9811715 57.3284042,61.9811715 56.9307123,62.2259489 L52.8891752,64.7139484 C52.0649772,65.2213337 51.0037046,64.6283619 51.0037046,63.6605213 L51.0037046,47.6544197 L64.1546407,47.6544197 L64.1546407,63.6605213 C64.1546407,64.6283619 63.0933681,65.2213337 62.2691701,64.7139484 Z" id="Path" fill="#E8AE4D"></path>
                        <g transform="translate(42.793249, 24.106864)">
                            <path d="M12.1480049,29.4457495 C17.267076,26.7704582 20.7507318,21.4900565 20.7507318,15.4132725 C20.7507318,9.33648846 17.2672187,4.0560868 12.1480049,1.38079551 C11.3139645,2.43251093 9.924753,2.87599163 8.63368067,2.4992684 C6.55863601,1.89374392 4.47061074,3.4107646 4.40527972,5.57139576 C4.3641982,6.92908291 3.49663639,8.12315721 2.21811675,8.58175819 C0.183440395,9.31152574 -0.614083126,11.7662892 0.602956881,13.552622 C1.36767224,14.6750889 1.36767224,16.1511708 0.602956881,17.2736377 C-0.61422577,19.0599705 0.183440395,21.514734 2.21811675,22.2445015 C3.49663639,22.7031025 4.3641982,23.8973194 4.40527972,25.2548639 C4.47061074,27.4154951 6.55863601,28.9325158 8.63368067,28.3269913 C9.924753,27.9505534 11.3139645,28.3941767 12.1480049,29.4457495 L12.1480049,29.4457495 Z" id="Path" fill="#FFE07D"></path>
                            <path d="M28.9690327,17.273923 C28.2043173,16.151456 28.2043173,14.6753742 28.9690327,13.5529073 C30.1860727,11.7665744 29.3885492,9.31195367 27.3538728,8.58204348 C26.0753532,8.12344249 25.2077914,6.92922555 25.1667098,5.57168104 C25.1013788,3.41104989 23.0133535,1.89402921 20.9383089,2.49955369 C19.6343986,2.87998567 18.2306374,2.42380963 17.3993072,1.34969908 C16.0764252,-0.359891226 13.4955644,-0.359891226 12.1726824,1.34969908 C11.9863891,1.59048243 11.7712817,1.80016935 11.535063,1.97633489 C16.6360183,4.30000832 20.1818669,9.44261572 20.1818669,15.4135578 C20.1818669,21.3844998 16.6358756,26.5271072 11.535063,28.8507807 C11.7712817,29.0269462 11.9863891,29.2366331 12.1726824,29.4774165 C13.4955644,31.1870068 16.0764252,31.1870068 17.3993072,29.4774165 C18.2304947,28.4031633 19.6343986,27.9471299 20.9383089,28.3275619 C23.0133535,28.9330864 25.1013788,27.4160657 25.1667098,25.2554345 C25.2077914,23.8977474 26.0753532,22.7036731 27.3538728,22.2450721 C29.3885492,21.5148766 30.1860727,19.0602558 28.9690327,17.273923 L28.9690327,17.273923 Z" id="Path" fill="#FFD064"></path>
                            <circle id="Oval" fill="#E8AE4D" cx="14.7859235" cy="15.4132725" r="8.13428345"></circle>
                            <path d="M22.9202069,15.4132725 C22.9202069,12.1421565 20.9892329,9.32193876 18.2051041,8.0304385 C19.4622271,10.2020533 20.1817243,12.7237168 20.1817243,15.4132725 C20.1817243,18.1029708 19.4620844,20.6246344 18.2051041,22.7961065 C20.9893755,21.5046062 22.9202069,18.6845311 22.9202069,15.4132725 Z" id="Path" fill="#E5A32E"></path>
                        </g>
                    </g>
                    <path d="M1.40019511,12.6368465 L12.7628013,1.27424032 C13.1348173,0.902224337 13.5673144,0.604525967 14.0370416,0.390845009 L14.0370416,11.2138283 C14.0370416,12.7034613 12.8294161,13.9110868 11.3397831,13.9110868 L0.516799806,13.9110868 C0.730623408,13.4412169 1.02817913,13.0088625 1.40019511,12.6368465 Z" id="Path" fill="#E28086"></path>
                </g>
            </g>
        </g>
    </g>
</svg>