<?xml version="1.0" encoding="UTF-8"?>
<svg width="159px" height="77px" viewBox="0 0 159 77" version="1.1" xmlns="http://www.w3.org/2000/svg" xmlns:xlink="http://www.w3.org/1999/xlink">
    <!-- Generator: Sketch 62 (91390) - https://sketch.com -->
    <title>logo</title>
    <desc>Created with Sketch.</desc>
    <g id="Page-1" stroke="none" stroke-width="1" fill="none" fill-rule="evenodd">
        <g id="Home_Page_New" transform="translate(-182.000000, -34.000000)">
            <g id="logo" transform="translate(182.000000, 34.000000)">
                <path d="M23.6736091,24.255454 C31.7227337,24.255454 39.7718584,26.3352101 47.8209831,30.4947222 L48.5109081,30.8563451 L48.496,30.907454 L48.5094904,31.854085 C48.5359117,35.9612354 48.1930251,40.0683859 47.4808308,44.1755364 C46.6682381,48.8616731 45.3661487,53.5478099 43.5745626,58.2339467 C41.7674156,61.9887758 39.1342428,65.4678887 35.6750443,68.6712856 C32.7934419,71.3397985 29.2253915,73.7608543 24.9708931,75.934453 L24.255454,76.2944281 C19.6840853,74.0290967 15.8775552,71.4880492 12.8358638,68.6712856 C9.37666524,65.4678887 6.74349247,61.9887758 4.93634549,58.2339467 C3.14475932,53.5478099 1.84266992,48.8616731 1.03007729,44.1755364 C0.266450518,39.7717806 -0.0726019134,35.3680248 0.0129199926,30.964269 L1.55717389e-12,30.8563451 C7.89120302,26.4557511 15.782406,24.255454 23.6736091,24.255454 Z M23.7370831,26.9015036 L23.0979608,26.9069459 C16.4936978,27.0194202 9.88943478,28.8752461 3.28517176,32.4744236 L2.64604953,32.8281734 L2.68404953,33.1375036 L2.65858522,33.1389806 C2.57872342,37.0866305 2.88044659,41.0342804 3.56375475,44.9819304 C4.28770091,49.1643567 5.4477442,53.3467829 7.0438846,57.5292092 C8.65388827,60.8804336 10.9998058,63.9855785 14.0816373,66.8446438 C16.6409594,69.2189688 19.8080751,71.3737969 23.5829843,73.3091281 L24.255454,73.6483786 L24.9279238,73.3091281 C28.702833,71.3737969 31.8699486,69.2189688 34.4292708,66.8446438 C37.5111022,63.9855785 39.8570198,60.8804336 41.4670235,57.5292092 C43.0631639,53.3467829 44.2232071,49.1643567 44.9471533,44.9819304 C45.5778993,41.3379458 45.8835078,37.6939613 45.8639788,34.0499767 L45.8523228,33.1389806 L45.7823045,33.1365189 L45.8648585,32.8281734 L45.1943199,32.4744236 C38.0419076,28.7591436 30.8894953,26.9015036 23.7370831,26.9015036 Z M138.257978,56.5898962 L138.257978,58.2146814 L138.145924,58.2146814 L138.135419,58.1420213 C138.123746,58.0760728 138.108572,58.030259 138.089897,58.0045799 C138.073296,57.981754 138.051162,57.9665368 138.023494,57.9589282 L137.977843,57.9532217 L134.980394,57.9532217 L134.980394,58.728263 L136.717233,58.728263 L136.782306,58.7244695 C136.842419,58.7168825 136.887649,58.697915 136.917997,58.667567 C136.944973,58.640591 136.965724,58.6087731 136.980249,58.5721134 L136.997369,58.5134925 L137.109423,58.5134925 L137.109423,59.9701965 L136.997369,59.9701965 L136.980249,59.9115756 C136.965724,59.8749159 136.944973,59.843098 136.917997,59.816122 C136.887649,59.785774 136.842419,59.7668065 136.782306,59.7592195 L136.717233,59.755426 L134.980394,59.755426 L134.980394,60.6238457 L137.977843,60.6238457 L138.023494,60.6181393 C138.051162,60.6105307 138.073296,60.5953134 138.089897,60.5724876 C138.108572,60.5468085 138.123746,60.497493 138.135419,60.4245411 L138.145924,60.3437104 L138.257978,60.3437104 L138.257978,61.9404821 L138.145924,61.9404821 L138.135419,61.8856222 C138.123746,61.8365985 138.108572,61.8050833 138.089897,61.7910765 C138.073296,61.7786261 138.051162,61.7703257 138.023494,61.7661756 L137.977843,61.763063 L133.318257,61.763063 L133.318257,61.6510088 L133.398504,61.6402119 C133.470289,61.627956 133.516687,61.611323 133.537697,61.5903128 C133.556372,61.5716371 133.568823,61.549503 133.575048,61.5239104 L133.579717,61.4829276 L133.579717,57.1314913 L133.575048,57.0905085 C133.568823,57.0649159 133.556372,57.0427817 133.537697,57.024106 C133.516687,57.0030959 133.470289,56.9864628 133.398504,56.9742069 L133.318257,56.96341 L133.318257,56.8513559 L137.977843,56.8513559 L138.023494,56.8456494 C138.051162,56.8380408 138.073296,56.8228236 138.089897,56.7999977 C138.108572,56.7743187 138.123746,56.7285048 138.135419,56.6625563 L138.145924,56.5898962 L138.257978,56.5898962 Z M144.498771,56.7953288 C144.872285,56.7953288 145.194441,56.8155608 145.465239,56.8560248 C145.736036,56.8964888 145.964813,56.9416217 146.15157,56.9914236 C146.332102,57.0412254 146.47217,57.0832457 146.571773,57.1174845 C146.671377,57.1517233 146.74608,57.1688427 146.795882,57.1688427 C146.833233,57.1688427 146.866434,57.1577756 146.895485,57.1356414 L146.935949,57.0941399 L147.038666,57.1221534 L146.198259,58.662898 L146.104881,58.5975331 L146.113052,58.5683524 L146.118888,58.5368371 C146.122,58.5150488 146.123557,58.4885916 146.123557,58.4574654 C146.123557,58.4076636 146.081536,58.3578617 145.997496,58.3080599 C145.913455,58.258258 145.801401,58.2131251 145.661333,58.1726611 C145.521266,58.1321971 145.360966,58.0979583 145.180434,58.0699448 C144.999903,58.0419313 144.810033,58.0279245 144.610826,58.0279245 C144.424069,58.0279245 144.227974,58.0497128 144.022541,58.0932894 C143.817109,58.136866 143.628795,58.2084562 143.457602,58.3080599 C143.286408,58.4076636 143.14634,58.5399497 143.037399,58.7049184 C142.928457,58.869887 142.873986,59.0706507 142.873986,59.3072094 C142.873986,59.5437682 142.928457,59.7445319 143.037399,59.9095005 C143.14634,60.0744691 143.286408,60.2067553 143.457602,60.306359 C143.628795,60.4059627 143.817109,60.4775528 144.022541,60.5211294 C144.227974,60.564706 144.424069,60.5864944 144.610826,60.5864944 C144.691754,60.5864944 144.819371,60.5724876 144.993677,60.544474 C145.167984,60.5164605 145.34229,60.4775528 145.516597,60.427751 C145.690903,60.3779491 145.844978,60.321922 145.97882,60.2596697 C146.112663,60.1974174 146.179584,60.1320525 146.179584,60.063575 C146.179584,60.0324488 146.173359,60.0075479 146.160908,59.9888722 L146.142232,59.9585242 L146.142232,59.9585242 L146.123557,59.9235073 L146.226273,59.8581424 L147.188071,61.3241842 L147.076017,61.3895491 L147.06201,61.3620544 C147.051635,61.3461454 147.039184,61.3350784 147.024659,61.3288531 C147.002871,61.3195153 146.976413,61.3148464 146.945287,61.3148464 C146.901711,61.3148464 146.814557,61.3413036 146.683827,61.3942181 C146.553098,61.4471325 146.38346,61.5031596 146.174915,61.5622993 C145.96637,61.621439 145.722029,61.6743534 145.441894,61.7210427 C145.161759,61.7677319 144.847384,61.7910765 144.498771,61.7910765 C144.125258,61.7910765 143.754856,61.742831 143.387568,61.6463399 C143.020279,61.5498488 142.690342,61.3973307 142.397756,61.1887854 C142.10517,60.9802402 141.868611,60.7187805 141.68808,60.4044064 C141.507548,60.0900322 141.417282,59.7242999 141.417282,59.3072094 C141.417282,58.890119 141.507548,58.5243867 141.68808,58.2100125 C141.868611,57.8956383 142.10517,57.6341787 142.397756,57.4256334 C142.690342,57.2170882 143.020279,57.0599011 143.387568,56.9540722 C143.754856,56.8482433 144.125258,56.7953288 144.498771,56.7953288 Z M129.73875,56.8513559 L129.73875,56.96341 L129.658503,56.9742069 C129.586718,56.9864628 129.540321,57.0030959 129.519311,57.024106 C129.500635,57.0427817 129.488184,57.0649159 129.481959,57.0905085 L129.47729,57.1314913 L129.47729,60.240994 L129.470754,60.4314861 C129.453323,60.6755152 129.401031,60.8797027 129.313878,61.0440488 C129.204936,61.2494814 129.055531,61.4082248 128.865661,61.520279 C128.675792,61.6323331 128.45324,61.7054796 128.198005,61.7397184 C127.942771,61.7739571 127.668861,61.7910765 127.376275,61.7910765 C127.152167,61.7910765 126.946734,61.7786261 126.759977,61.7537251 C126.57322,61.7288242 126.409808,61.6976981 126.26974,61.6603467 C126.129672,61.6229953 126.016062,61.5887565 125.928909,61.5576304 C125.841756,61.5265042 125.785728,61.5109411 125.760828,61.5109411 C125.711026,61.5109411 125.675231,61.520279 125.653442,61.5389547 C125.638917,61.5514051 125.618166,61.5693891 125.59119,61.5929067 L125.546057,61.6323331 L125.405989,61.5482925 L126.040963,59.9795344 L126.153017,60.0168857 L126.144846,60.0612405 L126.13901,60.1009264 C126.135898,60.1258273 126.134341,60.144503 126.134341,60.1569534 C126.134341,60.2690076 126.188812,60.3608297 126.297754,60.4324199 C126.406695,60.50401 126.532756,60.5615934 126.675936,60.60517 C126.819117,60.6487467 126.962297,60.6783165 127.105477,60.6938796 C127.248658,60.7094427 127.354487,60.7172242 127.422964,60.7172242 C127.690649,60.7172242 127.866512,60.6580845 127.950552,60.5398051 C128.017785,60.4451816 128.058124,60.3127087 128.071571,60.1423864 L128.076613,60.0075479 L128.076613,57.1314913 L128.071944,57.0905085 C128.065719,57.0649159 128.053269,57.0427817 128.034593,57.024106 C128.013583,57.0030959 127.967186,56.9864628 127.895401,56.9742069 L127.815154,56.96341 L127.815154,56.8513559 L129.73875,56.8513559 Z M119.828183,56.7953288 C120.226598,56.7953288 120.601668,56.8497996 120.953393,56.9587411 C121.305119,57.0676827 121.613268,57.2279823 121.87784,57.4396402 C122.142413,57.651298 122.352514,57.9127577 122.508145,58.2240193 C122.663776,58.5352808 122.741591,58.8963442 122.741591,59.3072094 C122.741591,59.7180747 122.663776,60.079138 122.508145,60.3903996 C122.352514,60.7016611 122.142413,60.9631208 121.87784,61.1747787 C121.613268,61.3864365 121.305119,61.5420673 120.953393,61.641671 C120.601668,61.7412747 120.226598,61.7910765 119.828183,61.7910765 C119.429768,61.7910765 119.054698,61.7412747 118.702973,61.641671 C118.351247,61.5420673 118.043098,61.3864365 117.778526,61.1747787 C117.513953,60.9631208 117.303852,60.7016611 117.148221,60.3903996 C116.99259,60.079138 116.914775,59.7180747 116.914775,59.3072094 C116.914775,58.8963442 116.99259,58.5352808 117.148221,58.2240193 C117.303852,57.9127577 117.513953,57.651298 117.778526,57.4396402 C118.043098,57.2279823 118.351247,57.0676827 118.702973,56.9587411 C119.054698,56.8497996 119.429768,56.7953288 119.828183,56.7953288 Z M150.076578,56.5898962 L150.087083,56.6625563 C150.098755,56.7285048 150.113929,56.7743187 150.132605,56.7999977 C150.149206,56.8228236 150.17134,56.8380408 150.199007,56.8456494 L150.244659,56.8513559 L154.857555,56.8513559 L154.903207,56.8456494 C154.930874,56.8380408 154.953009,56.8228236 154.969609,56.7999977 C154.988285,56.7743187 155.003459,56.7285048 155.015131,56.6625563 L155.025636,56.5898962 L155.13769,56.5898962 L155.13769,58.2520328 L155.025636,58.2520328 L155.015131,58.1793727 C155.003459,58.1134242 154.988285,58.0676103 154.969609,58.0419313 C154.953009,58.0191054 154.930874,58.0038882 154.903207,57.9962796 L154.857555,57.9905731 L153.251446,57.9905731 L153.251446,61.4829276 L153.256114,61.5239104 C153.26234,61.549503 153.27479,61.5716371 153.293466,61.5903128 C153.314476,61.611323 153.360873,61.627956 153.432658,61.6402119 L153.512905,61.6510088 L153.512905,61.763063 L151.589309,61.763063 L151.589309,61.6510088 L151.669556,61.6402119 C151.741341,61.627956 151.787738,61.611323 151.808748,61.5903128 C151.827424,61.5716371 151.839874,61.549503 151.8461,61.5239104 L151.850769,61.4829276 L151.850769,57.9905731 L150.244659,57.9905731 L150.199007,57.9962796 C150.17134,58.0038882 150.149206,58.0191054 150.132605,58.0419313 C150.113929,58.0676103 150.098755,58.1134242 150.087083,58.1793727 L150.076578,58.2520328 L149.964524,58.2520328 L149.964524,56.5898962 L150.076578,56.5898962 Z M103.415363,56.8513559 L103.586806,56.8563983 C103.809918,56.8698448 104.011117,56.9101843 104.190404,56.9774168 C104.414512,57.0614574 104.601269,57.1750679 104.750675,57.3182482 C104.90008,57.4614285 105.012135,57.6279534 105.086837,57.817823 C105.16154,58.0076925 105.198891,58.2053436 105.198891,58.4107762 C105.198891,58.6162088 105.16154,58.8138599 105.086837,59.0037294 C105.012135,59.193599 104.90008,59.3585676 104.750675,59.4986353 C104.601269,59.638703 104.414512,59.7507571 104.190404,59.8347977 C104.011117,59.9020302 103.809918,59.9423697 103.586806,59.9558162 L103.415363,59.9608587 L101.734551,59.9608587 L101.734551,61.4829276 L101.739219,61.5239104 C101.745445,61.549503 101.757895,61.5716371 101.776571,61.5903128 C101.797581,61.611323 101.843978,61.627956 101.915763,61.6402119 L101.99601,61.6510088 L101.99601,61.763063 L100.072414,61.763063 L100.072414,61.6510088 L100.152661,61.6402119 C100.224446,61.627956 100.270843,61.611323 100.291853,61.5903128 C100.310529,61.5716371 100.322979,61.549503 100.329205,61.5239104 L100.333874,61.4829276 L100.333874,57.1314913 L100.329205,57.0905085 C100.322979,57.0649159 100.310529,57.0427817 100.291853,57.024106 C100.270843,57.0030959 100.224446,56.9864628 100.152661,56.9742069 L100.072414,56.96341 L100.072414,56.8513559 L103.415363,56.8513559 Z M111.803861,56.8513559 L112.027162,56.8560248 C112.60388,56.8809257 113.030577,57.0054303 113.307254,57.2295387 C113.618516,57.4816605 113.774146,57.8722937 113.774146,58.4014384 C113.774146,58.8309793 113.648086,59.1671417 113.395964,59.4099257 C113.185862,59.6122457 112.929288,59.7670119 112.62624,59.8742242 L112.438834,59.9328451 L113.5407,61.4829276 L113.58739,61.5434368 C113.635946,61.5972228 113.690106,61.6308391 113.749868,61.6442856 L113.811498,61.6510088 L113.811498,61.763063 L111.869226,61.763063 L111.869226,61.6510088 L111.943182,61.6412975 C112.030833,61.6203807 112.074658,61.5675907 112.074658,61.4829276 C112.074658,61.4704771 112.049758,61.4269005 111.999956,61.3521977 C111.983355,61.3272968 111.965371,61.3006667 111.946004,61.2723073 L111.813199,61.0814002 C111.738496,60.9755713 111.656012,60.8619608 111.565746,60.7405688 C111.47548,60.6191768 111.388327,60.5024537 111.304286,60.3903996 C111.248259,60.3156968 111.197074,60.2465276 111.15073,60.1828919 L111.084847,60.0915885 L111.00781,59.9818688 L110.981547,59.9427666 L110.981547,59.9427666 L110.963455,59.9141694 L110.048346,59.9141694 L110.048346,61.4829276 L110.053015,61.5239104 C110.05924,61.549503 110.07169,61.5716371 110.090366,61.5903128 C110.111376,61.611323 110.157774,61.627956 110.229558,61.6402119 L110.309806,61.6510088 L110.309806,61.763063 L108.386209,61.763063 L108.386209,61.6510088 L108.466456,61.6402119 C108.538241,61.627956 108.584638,61.611323 108.605649,61.5903128 C108.624324,61.5716371 108.636775,61.549503 108.643,61.5239104 L108.647669,61.4829276 L108.647669,57.1314913 L108.643,57.0905085 C108.636775,57.0649159 108.624324,57.0427817 108.605649,57.024106 C108.584638,57.0030959 108.538241,56.9864628 108.466456,56.9742069 L108.386209,56.96341 L108.386209,56.8513559 L111.803861,56.8513559 Z M119.828183,57.934546 C119.62275,57.934546 119.428212,57.9656722 119.244568,58.0279245 C119.060923,58.0901768 118.899067,58.1788863 118.759,58.2940531 C118.618932,58.4092199 118.506878,58.5524002 118.422837,58.723594 C118.338797,58.8947879 118.296776,59.0893264 118.296776,59.3072094 C118.296776,59.5250925 118.338797,59.719631 118.422837,59.8908248 C118.506878,60.0620187 118.618932,60.205199 118.759,60.3203657 C118.899067,60.4355325 119.060923,60.524242 119.244568,60.5864944 C119.428212,60.6487467 119.62275,60.6798728 119.828183,60.6798728 C120.033616,60.6798728 120.228154,60.6487467 120.411798,60.5864944 C120.595443,60.524242 120.757299,60.4355325 120.897366,60.3203657 C121.037434,60.205199 121.149488,60.0620187 121.233529,59.8908248 C121.317569,59.719631 121.35959,59.5250925 121.35959,59.3072094 C121.35959,59.0893264 121.317569,58.8947879 121.233529,58.723594 C121.149488,58.5524002 121.037434,58.4092199 120.897366,58.2940531 C120.757299,58.1788863 120.595443,58.0901768 120.411798,58.0279245 C120.228154,57.9656722 120.033616,57.934546 119.828183,57.934546 Z M103.153903,57.8971947 L101.734551,57.8971947 L101.734551,58.971047 L103.153903,58.971047 C103.415363,58.971047 103.606789,58.9274704 103.728181,58.8403171 C103.849573,58.7531639 103.910269,58.6099836 103.910269,58.4107762 C103.910269,58.2302445 103.849573,58.0995147 103.728181,58.0185867 C103.606789,57.9376587 103.415363,57.8971947 103.153903,57.8971947 Z M111.617104,57.8971947 L110.048346,57.8971947 L110.048346,58.9243577 L111.617104,58.9243577 C111.891014,58.9243577 112.079327,58.8729996 112.182044,58.7702833 C112.28476,58.667567 112.336118,58.5477313 112.336118,58.4107762 C112.336118,58.2738211 112.28476,58.1539854 112.182044,58.0512691 C112.079327,57.9485528 111.891014,57.8971947 111.617104,57.8971947 Z M28.0472706,42.1147565 L24.054896,54.4636398 L21.1778001,54.4636398 L25.1540112,42.1147565 L28.0472706,42.1147565 Z M58.7824234,30.5911079 L58.7824234,37.8597583 L58.7883676,38.089827 C58.8319582,38.9194775 59.1152971,39.5958463 59.6383842,40.1189334 C60.2090247,40.6895739 60.9807926,40.9748942 61.9536879,40.9748942 C62.9452927,40.9748942 63.7544797,40.6568323 64.3812488,40.0207084 C64.9557871,39.4375949 65.2669954,38.6894088 65.3148736,37.7761501 L65.3214024,37.5229868 L65.3214024,30.5911079 L71.1587742,30.5911079 L71.1587742,44.9038944 L71.1527604,45.2615709 C71.100641,46.797852 70.7097456,48.156679 69.9800741,49.3380518 C69.1942741,50.6102995 68.0950895,51.5925496 66.6825203,52.284802 C65.2699512,52.9770545 63.6281904,53.3231807 61.7572379,53.3231807 C60.1856378,53.3231807 58.6233925,53.0706021 57.0705019,52.5654449 C55.6587832,52.1062111 54.4635383,51.5155468 53.4847673,50.7934519 L53.1976302,50.5728805 L55.4427732,46.6719445 L55.736352,46.8637903 C56.435182,47.3006869 57.2307022,47.66238 58.1229127,47.9488696 C59.1425818,48.2762863 60.1014449,48.4399947 60.9995021,48.4399947 C62.2904594,48.4399947 63.3335154,48.1032232 64.1286702,47.4296803 C64.8670282,46.8042476 65.2625772,45.9932947 65.315317,44.9968216 L65.3214024,44.763573 L65.3214024,43.0516515 L65.1314072,43.3258396 C64.5471087,44.1290395 63.8339952,44.7579601 62.9920665,45.2126016 C62.0565903,45.7177588 60.9901474,45.9703374 59.7927378,45.9703374 C58.445652,45.9703374 57.2529198,45.6569528 56.2145411,45.0301837 C55.1761625,44.4034146 54.3716529,43.5193896 53.8010124,42.3781086 C53.2779253,41.3319343 52.9945864,40.1364086 52.9509958,38.7915316 L52.9450516,38.421044 L52.9450516,30.5911079 L58.7824234,30.5911079 Z M30.4963882,41.9046315 L37.4951664,45.9454965 L37.4951664,48.8872462 L30.4963882,52.9119477 L30.4963882,49.4044769 L33.7775706,47.4002079 L30.5125517,45.3959388 L30.4963882,41.9046315 Z M18.9711343,41.9046315 L18.9711343,45.4282658 L15.7061154,47.4163713 L18.9549709,49.4206404 L18.9711343,52.9119477 L11.9723562,48.8710827 L11.9723562,45.9454965 L18.9711343,41.9046315 Z M102.254005,30.5911079 L102.254005,41.8448871 L102.259851,42.1072102 C102.302727,43.0533405 102.581421,43.8265376 103.095933,44.4268016 C103.657219,45.0816349 104.396245,45.4090516 105.313012,45.4090516 C106.398164,45.4090516 107.272835,45.0348611 107.937023,44.2864801 C108.55012,43.5956669 108.880249,42.7215225 108.92741,41.6640468 L108.933305,41.3958585 L108.933305,30.5911079 L114.770677,30.5911079 L114.770677,50.2641733 L108.933305,50.2641733 L108.933305,47.401616 L108.750307,47.6813311 C108.125626,48.5936138 107.354051,49.304885 106.435583,49.8151447 C105.425269,50.3764305 104.283988,50.6570734 103.01174,50.6570734 C101.683364,50.6570734 100.518696,50.3530436 99.5177366,49.744984 C98.516777,49.1369245 97.7403317,48.2716089 97.1884008,47.1490374 C96.682464,46.1200136 96.408415,44.9337777 96.3662536,43.5903299 L96.3605043,43.2200372 L96.3605043,30.5911079 L102.254005,30.5911079 Z M83.7596392,30.2262721 C85.7802679,30.2262721 87.609124,30.665946 89.2462074,31.5452936 C90.8832908,32.4246413 92.1648933,33.636083 93.0910148,35.1796188 C94.0171363,36.7231547 94.480197,38.4584631 94.480197,40.3855442 C94.480197,42.3313348 94.0171363,44.0853527 93.0910148,45.6475981 C92.1648933,47.2098434 90.8832908,48.4353173 89.2462074,49.3240197 C87.609124,50.2127221 85.7802679,50.6570734 83.7596392,50.6570734 C81.720301,50.6570734 79.8867676,50.2127221 78.2590389,49.3240197 C76.6313102,48.4353173 75.3543851,47.2098434 74.4282637,45.6475981 C73.5021422,44.0853527 73.0390814,42.3313348 73.0390814,40.3855442 C73.0390814,38.4584631 73.5021422,36.7231547 74.4282637,35.1796188 C75.3543851,33.636083 76.6313102,32.4246413 78.2590389,31.5452936 C79.8867676,30.665946 81.720301,30.2262721 83.7596392,30.2262721 Z M143.564636,30.5911079 L143.564636,38.421044 L150.552643,38.421044 L150.552643,30.5911079 L156.390015,30.5911079 L156.390015,50.2641733 L150.552643,50.2641733 L150.552643,42.9393943 L143.564636,42.9393943 L143.564636,50.2641733 L137.727264,50.2641733 L137.727264,30.5911079 L143.564636,30.5911079 Z M126.080585,30.2262721 C127.764442,30.2262721 129.401525,30.4227221 130.991835,30.8156222 C132.405443,31.1648666 133.730355,31.6619394 134.96657,32.3068406 L135.425992,32.555608 L133.910521,36.8775082 L133.457563,36.6546778 C132.239199,36.0799212 130.937016,35.6608278 129.551014,35.3973977 L129.027335,35.3059081 L129.027335,50.2641733 L123.189963,50.2641733 L123.189963,35.3059081 L122.666564,35.4024493 C121.282059,35.6778535 119.98736,36.0969469 118.782467,36.6597294 L118.334841,36.8775082 L116.81937,32.5275437 L117.267013,32.2846663 C118.473661,31.654548 119.78379,31.1648666 121.197399,30.8156222 C122.787708,30.4227221 124.415437,30.2262721 126.080585,30.2262721 Z M83.8438321,35.0813938 C82.9831939,35.0813938 82.1833617,35.3152629 81.4443355,35.783001 C80.7053093,36.2507392 80.1159592,36.8915404 79.6762854,37.7054047 C79.2366116,38.5192691 79.0167747,39.4220036 79.0167747,40.4136085 C79.0167747,41.4052133 79.2366116,42.3126252 79.6762854,43.1358443 C80.1159592,43.9590634 80.7053093,44.6092194 81.4443355,45.0863123 C82.1833617,45.5634052 82.9831939,45.8019516 83.8438321,45.8019516 C84.6857607,45.8019516 85.4668834,45.5634052 86.1872001,45.0863123 C86.9075168,44.6092194 87.4734799,43.9637408 87.8850895,43.1498765 C88.296699,42.3360121 88.5025038,41.4239228 88.5025038,40.4136085 C88.5025038,39.4220036 88.296699,38.5192691 87.8850895,37.7054047 C87.4734799,36.8915404 86.9121942,36.2507392 86.2012322,35.783001 C85.4902703,35.3152629 84.7044702,35.0813938 83.8438321,35.0813938 Z M155.934284,24.138635 L156.95369,26.1493894 L157.963743,24.138635 L158.782073,24.138635 L158.782073,27.4119561 L158.118057,27.4119561 L158.118057,25.2001262 L157.187498,27.0799478 L156.710529,27.0799478 L155.775294,25.2001262 L155.775294,27.4119561 L155.111278,27.4119561 L155.111278,24.138635 L155.934284,24.138635 Z M154.947611,24.138635 L154.947611,24.7652422 L153.94691,24.7652422 L153.94691,27.4119561 L153.208075,27.4119561 L153.208075,24.7652422 L152.21205,24.7652422 L152.21205,24.138635 L154.947611,24.138635 Z M24.2091166,-2.30926389e-13 L34.6451457,5.82543756 C40.4083259,9.03410102 45.0811747,11.7754834 45.01887,11.9312438 C44.9877177,12.0558521 42.5578363,13.4576953 39.6606701,15.046451 L39.6606701,15.046451 L34.3647747,17.9124417 L34.2713178,20.9964969 C34.1832012,23.8455764 34.1781659,24.0360745 33.5773188,23.8918762 L33.4613573,23.8624875 C29.1934887,22.8033171 19.2870492,22.8033171 15.0191806,23.8624875 L15.0191806,23.8624875 L14.2715248,24.0494 L14.2718855,17.1914982 C14.276124,12.7959324 14.3301645,12.7357002 15.0191806,12.3050686 C16.2652736,11.4951147 18.9443736,10.5605526 21.280798,10.1244236 C23.1187852,9.78175076 23.2745469,9.71944662 22.2153678,9.68829454 C20.6265992,9.65714247 17.7605852,10.3736401 15.4553132,11.4328106 L15.4553132,11.4328106 L13.6484783,12.2427645 L13.6484783,14.8283865 C13.6484783,16.2613818 13.5550213,17.4451606 13.430412,17.4451606 C13.2746504,17.4451606 12.1531667,16.8844233 10.9070736,16.1990777 C9.66098062,15.5137321 8.50834458,14.9529948 8.32143062,14.9529948 C8.165669,14.9529948 8.0410597,16.3859901 8.0410597,18.2239624 L8.04140712,18.5063134 C8.04802359,21.0707284 8.15277838,21.6753972 8.66410621,22.367188 C9.00678179,22.8344691 9.41176202,23.644423 9.56752364,24.2051603 C9.84789457,25.2020266 9.84789457,25.2020266 8.25912597,25.8250681 C7.35570853,26.1365888 6.38998644,26.5104137 6.10961552,26.635022 C5.26850273,26.9776948 5.39311203,25.0462663 6.32768179,23.1771419 C7.01303295,21.8064507 7.10648993,21.2768655 7.10648993,17.8812896 L7.10648993,14.1430409 L5.08158877,13.0527184 C3.96010506,12.4919811 3.05668762,11.9312438 3.08783994,11.8377875 C3.08783994,11.7443313 7.85414574,9.06525309 13.6484783,5.82543756 L13.6484783,5.82543756 L24.2091166,-2.30926389e-13 Z M80.4716514,15.5603661 L80.4716514,18.0063743 L80.3029612,18.0063743 L80.2905905,17.9172496 C80.2725969,17.8070386 80.2486054,17.7313155 80.2186161,17.6900801 C80.190501,17.6514219 80.1518428,17.6272606 80.1026415,17.617596 L80.0499258,17.6127637 L75.5374625,17.6127637 L75.5374625,18.7795377 L78.1521609,18.7795377 L78.2501242,18.7738269 C78.3406195,18.7624051 78.4087106,18.7338508 78.4543975,18.6881639 C78.4950081,18.6475533 78.5262471,18.5996536 78.5481143,18.5444648 L78.5738864,18.4562148 L78.7425766,18.4562148 L78.7425766,20.6491877 L78.5738864,20.6491877 L78.5481143,20.5609377 C78.5262471,20.5057489 78.4950081,20.4578492 78.4543975,20.4172386 C78.4087106,20.3715517 78.3406195,20.3429973 78.2501242,20.3315756 L78.1521609,20.3258647 L75.5374625,20.3258647 L75.5374625,21.6332139 L80.0499258,21.6332139 L80.1026415,21.6283817 C80.1518428,21.6187171 80.190501,21.5945558 80.2186161,21.5558976 C80.2486054,21.5146622 80.2725969,21.4329412 80.2905905,21.3107345 L80.3029612,21.2114884 L80.4716514,21.2114884 L80.4716514,23.615324 L80.3029612,23.615324 L80.2871465,23.5327361 C80.2695746,23.4589341 80.2467311,23.41149 80.2186161,23.3904037 C80.1936249,23.3716603 80.1603034,23.3591648 80.1186515,23.352917 L80.0499258,23.3482311 L73.0352243,23.3482311 L73.0352243,23.1795409 L73.1339081,23.1668892 C73.2546153,23.1481458 73.3318379,23.1219051 73.365576,23.0881671 C73.393691,23.060052 73.4124344,23.0267305 73.421806,22.9882025 L73.4288348,22.9265056 L73.4288348,16.3757021 L73.421806,16.3140053 C73.4124344,16.2754772 73.393691,16.2421557 73.365576,16.2140407 C73.3318379,16.1803026 73.2546153,16.1540619 73.1339081,16.1353186 L73.0352243,16.1226668 L73.0352243,15.9539766 L80.0499258,15.9539766 L80.1026415,15.9491443 C80.1518428,15.9394798 80.190501,15.9153184 80.2186161,15.8766603 C80.2486054,15.8354249 80.2725969,15.7597017 80.2905905,15.6494908 L80.3029612,15.5603661 L80.4716514,15.5603661 Z M64.9943239,15.9539766 L64.9943239,16.1226668 L64.8956401,16.1353186 C64.7749329,16.1540619 64.6977103,16.1803026 64.6639722,16.2140407 C64.6358572,16.2421557 64.6171138,16.2754772 64.6077422,16.3140053 L64.6007134,16.3757021 L64.6007134,18.6108475 L68.2556681,18.6108475 L68.2556681,16.3757021 L68.2486394,16.3140053 C68.2392677,16.2754772 68.2205243,16.2421557 68.1924093,16.2140407 C68.1586712,16.1803026 68.0814486,16.1540619 67.9607414,16.1353186 L67.8620576,16.1226668 L67.8620576,15.9539766 L70.7579063,15.9539766 L70.7579063,16.1226668 L70.6592226,16.1353186 C70.5385153,16.1540619 70.4612927,16.1803026 70.4275547,16.2140407 C70.3994396,16.2421557 70.3806963,16.2754772 70.3713246,16.3140053 L70.3642958,16.3757021 L70.3642958,22.9265056 L70.3713246,22.9882025 C70.3806963,23.0267305 70.3994396,23.060052 70.4275547,23.0881671 C70.4612927,23.1219051 70.5385153,23.1481458 70.6592226,23.1668892 L70.7579063,23.1795409 L70.7579063,23.3482311 L67.8620576,23.3482311 L67.8620576,23.1795409 L67.9607414,23.1668892 C68.0814486,23.1481458 68.1586712,23.1219051 68.1924093,23.0881671 C68.2205243,23.060052 68.2392677,23.0267305 68.2486394,22.9882025 L68.2556681,22.9265056 L68.2556681,20.3258647 L64.6007134,20.3258647 L64.6007134,22.9265056 L64.6077422,22.9882025 C64.6171138,23.0267305 64.6358572,23.060052 64.6639722,23.0881671 C64.6977103,23.1219051 64.7749329,23.1481458 64.8956401,23.1668892 L64.9943239,23.1795409 L64.9943239,23.3482311 L62.0984752,23.3482311 L62.0984752,23.1795409 L62.1971589,23.1668892 C62.3178662,23.1481458 62.3950888,23.1219051 62.4288268,23.0881671 C62.4569419,23.060052 62.4756852,23.0267305 62.4850569,22.9882025 L62.4920857,22.9265056 L62.4920857,16.3757021 L62.4850569,16.3140053 C62.4756852,16.2754772 62.4569419,16.2421557 62.4288268,16.2140407 C62.3950888,16.1803026 62.3178662,16.1540619 62.1971589,16.1353186 L62.0984752,16.1226668 L62.0984752,15.9539766 L64.9943239,15.9539766 Z M52.9329733,15.5603661 L52.945344,15.6494908 C52.9633376,15.7597017 52.9873291,15.8354249 53.0173185,15.8766603 C53.0454335,15.9153184 53.0840917,15.9394798 53.133293,15.9491443 L53.1860087,15.9539766 L60.1304226,15.9539766 L60.1831383,15.9491443 C60.2323396,15.9394798 60.2709978,15.9153184 60.2991129,15.8766603 C60.3291022,15.8354249 60.3530937,15.7597017 60.3710873,15.6494908 L60.383458,15.5603661 L60.5521482,15.5603661 L60.5521482,18.0626043 L60.383458,18.0626043 L60.3710873,17.9734797 C60.3530937,17.8632687 60.3291022,17.7875456 60.2991129,17.7463102 C60.2709978,17.707652 60.2323396,17.6834906 60.1831383,17.6738261 L60.1304226,17.6689938 L57.7125295,17.6689938 L57.7125295,22.9265056 L57.7195583,22.9882025 C57.72893,23.0267305 57.7476733,23.060052 57.7757883,23.0881671 C57.8095264,23.1219051 57.886749,23.1481458 58.0074562,23.1668892 L58.10614,23.1795409 L58.10614,23.3482311 L55.2102913,23.3482311 L55.2102913,23.1795409 L55.3089751,23.1668892 C55.4296823,23.1481458 55.5069049,23.1219051 55.540643,23.0881671 C55.568758,23.060052 55.5875014,23.0267305 55.596873,22.9882025 L55.6039018,22.9265056 L55.6039018,17.6689938 L53.1860087,17.6689938 L53.133293,17.6738261 C53.0840917,17.6834906 53.0454335,17.707652 53.0173185,17.7463102 C52.9873291,17.7875456 52.9633376,17.8632687 52.945344,17.9734797 L52.9329733,18.0626043 L52.7642831,18.0626043 L52.7642831,15.5603661 L52.9329733,15.5603661 Z" id="Combined-Shape" fill="#FFFFFF" fill-rule="nonzero"></path>
                <g id="Group" transform="translate(51.597966, 12.348231)"></g>
            </g>
        </g>
    </g>
</svg>