<?xml version="1.0" encoding="UTF-8"?>
<svg width="97px" height="79px" viewBox="0 0 97 79" version="1.1" xmlns="http://www.w3.org/2000/svg" xmlns:xlink="http://www.w3.org/1999/xlink">
    <!-- Generator: Sketch 62 (91390) - https://sketch.com -->
    <title>teacher</title>
    <desc>Created with Sketch.</desc>
    <g id="Page-1" stroke="none" stroke-width="1" fill="none" fill-rule="evenodd">
        <g id="Home_Page_New" transform="translate(-757.000000, -1757.000000)" fill-rule="nonzero">
            <g id="Group-4-Copy" transform="translate(715.000000, 1702.000000)">
                <g id="teacher" transform="translate(42.000000, 55.000000)">
                    <path d="M28.0271358,1.02383548 L28.0271358,5.37547275 L23.7568285,6.37662042 L19.3327056,5.37547275 L19.3327056,1.02383548 C19.3327056,0.497593657 19.7593518,0.0707552032 20.2857859,0.0707552032 L27.0742478,0.0707552032 C27.6004896,0.0707552032 28.0271358,0.497401388 28.0271358,1.02383548 L28.0271358,1.02383548 Z" id="Path" fill="#5A5A5A"></path>
                    <path d="M28.0271358,1.02441229 L28.0271358,5.37547275 L25.8919822,6.37662042 L24.7104856,5.37547275 L24.7104856,1.02441229 C24.7104856,0.497593657 24.2836472,0.0707552032 23.7568285,0.0707552032 L27.0734787,0.0707552032 C27.6002973,0.0707552032 28.0271358,0.497593657 28.0271358,1.02441229 Z" id="Path" fill="#444444"></path>
                    <path d="M87.2461645,1.02383548 L87.2461645,5.37547275 L82.800892,6.18435084 L78.5517344,5.37547275 L78.5517344,1.02383548 C78.5517344,0.497593657 78.9783806,0.0707552032 79.5048147,0.0707552032 L86.2932765,0.0707552032 C86.8195183,0.0707552032 87.2461645,0.497401388 87.2461645,1.02383548 Z" id="Path" fill="#5A5A5A"></path>
                    <path d="M87.2461645,1.02441229 L87.2461645,5.37547275 L85.0917839,5.76751041 L83.8910605,5.37547275 L83.8910605,1.02441229 C83.8910605,0.497593657 83.464222,0.0707552032 82.9374034,0.0707552032 L86.2925074,0.0707552032 C86.8193261,0.0707552032 87.2461645,0.497593657 87.2461645,1.02441229 Z" id="Path" fill="#444444"></path>
                    <path d="M97,9.60636472 L97,57.2969098 C97,59.6335619 95.1057602,61.5278018 92.769108,61.5278018 L88.2536571,61.5278018 L80.5061546,60.2761269 L72.7586521,61.5278018 L14.5221209,61.5278018 C11.791893,61.5278018 9.57887017,59.3128563 9.57887017,56.584551 L9.57887017,10.3187235 C9.57887017,7.59041824 11.791893,5.37547275 14.5221209,5.37547275 L92.769108,5.37547275 C95.1057602,5.37547275 97,7.26971259 97,9.60636472 Z" id="Path" fill="#DDEAFB"></path>
                    <path d="M97,9.60540337 L97,57.2978712 C97,59.6339465 95.1061447,61.5278018 92.7681467,61.5278018 L88.6766501,61.5278018 C91.0127255,61.5278018 92.9085035,59.6339465 92.9085035,57.2978712 L92.9085035,9.60540337 C92.9085035,7.26932805 91.0127255,5.37547275 88.6766501,5.37547275 L92.7681467,5.37547275 C95.1061447,5.37547275 97,7.26932805 97,9.60540337 Z" id="Path" fill="#CBE2FF"></path>
                    <path d="M88.2536571,56.1707869 L88.2536571,61.5278018 L72.7586521,61.5278018 L72.7586521,56.1707869 C72.7586521,55.3182636 73.449669,54.6272468 74.3021923,54.6272468 L86.7099247,54.6272468 C87.5626402,54.6272468 88.2536571,55.3182636 88.2536571,56.1707869 Z" id="Path" fill="#528FD8"></path>
                    <path d="M88.2536571,56.1711715 L88.2536571,61.5278018 L84.3448167,61.5278018 L84.3448167,56.1711715 C84.3448167,55.3174945 83.6526462,54.6272468 82.800892,54.6272468 L86.7097324,54.6272468 C87.5634093,54.6272468 88.2536571,55.3174945 88.2536571,56.1711715 Z" id="Path" fill="#0473CE"></path>
                    <path d="M68.9786323,41.7490307 L64.7579306,40.304894 L62.6587314,35.4291298 L65.4103013,32.6760218 L67.813671,30.9611695 C68.145336,30.1993974 68.9786323,41.7490307 68.9786323,41.7490307 L68.9786323,41.7490307 Z" id="Path" fill="#FFCEBF"></path>
                    <path d="M69.795778,30.9838573 L68.9786323,41.7490307 L66.3376174,40.8453637 L65.9734589,38.7438573 L66.3854926,33.3112805 C66.4251001,32.788884 65.8723251,32.4287631 65.4104936,32.6760218 L67.9501824,30.1359485 C68.6594648,29.4264737 69.8707631,29.9821328 69.795778,30.9838573 L69.795778,30.9838573 Z" id="Path" fill="#FFB09E"></path>
                    <path d="M68.9767096,41.747108 L59.7093162,53.0371774 C58.0500297,55.0579306 55.8043211,56.5134113 53.2817443,57.2017364 L38.4535302,61.2567017 C37.8678771,61.4168622 37.4618038,61.9488722 37.4618038,62.5560595 L37.4618038,77.0287671 L7.1735778,77.0287671 L7.1735778,67.9305709 C7.1735778,65.3791536 7.46390486,62.8450406 8.03686819,60.3762993 C8.60790882,57.907558 9.45966303,55.5022656 10.5825173,53.2104123 C12.0033895,50.3109871 14.9508821,48.4709673 18.1810109,48.4709673 L42.4800396,48.4709673 C48.607671,48.4709673 54.4045986,45.6945946 58.2422993,40.9205411 L62.6587314,35.4293221 L65.9734589,38.7440496 L68.9767096,41.747108 Z" id="Path" fill="#82AEE3"></path>
                    <path d="M68.9767096,41.747108 L59.7093162,53.0371774 C58.0500297,55.0579306 55.8043211,56.5134113 53.2817443,57.2017364 L38.4535302,61.2567017 C37.8678771,61.4168622 37.4618038,61.9488722 37.4618038,62.5560595 L37.4618038,77.0287671 L32.5973835,77.0287671 L32.5973835,62.5560595 C32.5973835,61.9490644 33.0034569,61.4168622 33.58911,61.2567017 L48.4173241,57.2017364 C50.9399009,56.5134113 53.1856095,55.0579306 54.8448959,53.0371774 L65.9734589,38.7438573 L68.9767096,41.747108 Z" id="Path" fill="#528FD8"></path>
                    <path d="M33.2101467,33.2191833 L33.2101467,40.5483072 C33.2101467,44.9249395 29.6612349,48.4717364 25.2846026,48.4717364 C25.1190585,48.4717364 24.9535144,48.4675064 24.7900852,48.4548167 C20.6426383,48.2000595 17.3611734,44.7593954 17.3611734,40.5483072 L17.3611734,33.2191833 L33.2101467,33.2191833 Z" id="Path" fill="#FFCEBF"></path>
                    <path d="M56.3251794,19.2104222 L50.253114,19.2104222 C49.7612884,19.2104222 49.3625213,18.8116551 49.3625213,18.3198295 L49.3625213,14.7947592 C49.3625213,14.3029336 49.7612884,13.9041665 50.253114,13.9041665 L56.3251794,13.9041665 C56.817005,13.9041665 57.2157721,14.3029336 57.2157721,14.7947592 L57.2157721,18.3198295 C57.2159643,18.8116551 56.8171972,19.2104222 56.3251794,19.2104222 Z" id="Path" fill="#528FD8"></path>
                    <path d="M56.3251794,29.9727116 L50.253114,29.9727116 C49.7612884,29.9727116 49.3625213,29.5739445 49.3625213,29.0821189 L49.3625213,25.5570486 C49.3625213,25.065223 49.7612884,24.6664559 50.253114,24.6664559 L56.3251794,24.6664559 C56.817005,24.6664559 57.2157721,25.065223 57.2157721,25.5570486 L57.2157721,29.0821189 C57.2159643,29.5739445 56.8171972,29.9727116 56.3251794,29.9727116 Z" id="Path" fill="#528FD8"></path>
                    <path d="M33.2107235,33.2199524 L33.2107235,40.5473459 C33.2107235,44.9253241 29.6614272,48.470775 25.2853717,48.470775 C25.1180971,48.470775 24.9527453,48.4669296 24.7893162,48.4553935 C24.2317344,48.4207849 23.6895342,48.3304182 23.1704063,48.1842934 C19.8191477,47.2613994 17.3619425,44.1946997 17.3619425,40.5473459 L17.3619425,33.2199524 L33.2107235,33.2199524 Z" id="Path" fill="#FFCEBF"></path>
                    <path d="M33.2107235,33.2199524 L33.2107235,40.5473459 C33.2107235,44.9253241 29.6614272,48.470775 25.2853717,48.470775 C25.1180971,48.470775 24.9527453,48.4669296 24.7893162,48.4553935 C24.2317344,48.4207849 23.6895342,48.3304182 23.1704063,48.1842934 C26.5197423,47.2594767 28.9807929,44.192777 28.9807929,40.5473459 L28.9807929,33.2199524 L33.2107235,33.2199524 Z" id="Path" fill="#FFB09E"></path>
                    <path d="M39.8594054,28.1478811 C39.8594054,31.2857205 37.3176016,33.8275243 34.1797621,33.8275243 L23.9356392,33.8275243 L23.9356392,41.6875045 C23.9356392,45.2983271 20.0614073,46.461558 17.7580178,44.9983865 C16.8293558,44.4081189 16.1564123,43.3929356 16.094886,41.9413003 C16.0891179,41.8201705 16.0871952,41.6951952 16.0871952,41.5721427 L16.0871952,30.76467 C16.0871952,28.2440159 18.1271754,26.202113 20.6478295,26.202113 L24.6105055,26.202113 C27.4326383,26.202113 28.4870446,23.9727473 30.8035084,22.9527572 C31.8546462,22.4951556 33.044218,22.4142101 34.1797621,22.4663152 C37.3176016,22.4663152 39.8594054,25.0100416 39.8594054,28.1478811 L39.8594054,28.1478811 Z" id="Path" fill="#5A5A5A"></path>
                    <g id="Group" transform="translate(16.919722, 22.303271)" fill="#444444">
                        <path d="M0.0730624381,5.73117146 C0.159583746,5.61388702 0.251873142,5.50044797 0.35185332,5.39277701 C0.253795837,5.50044797 0.161506442,5.61388702 0.0730624381,5.73117146 Z" id="Path"></path>
                        <path d="M5.64503469,11.5242537 L7.01591675,11.5242537 L7.01591675,19.3842339 C7.01591675,22.9950565 3.14168484,24.1582874 0.838295342,22.695116 C1.85924678,22.0644718 2.59371655,20.956999 2.59371655,19.3842339 L2.59371655,14.5755719 C2.59371655,12.8893677 3.95883053,11.5242537 5.64503469,11.5242537 L5.64503469,11.5242537 Z" id="Path"></path>
                        <path d="M22.9396829,5.84461051 C22.9396829,8.98244995 20.3978791,11.5242537 17.2600396,11.5242537 L12.7090188,11.5242537 C15.8314767,11.5242537 18.51556,8.97091378 18.5174827,5.8484559 C18.5194054,3.29511596 16.8370466,1.13400595 14.5201982,0.416840436 C15.3250387,0.168620416 16.3813677,0.125552032 17.2600396,0.163044599 C20.3978791,0.163044599 22.9396829,2.70677106 22.9396829,5.84461051 L22.9396829,5.84461051 Z" id="Path"></path>
                    </g>
                    <path d="M42.8315084,75.5873221 L1.4420218,75.5873221 C0.645641229,75.5873221 0,76.2329633 0,77.0293439 C0,77.8257245 0.645641229,78.4713657 1.4420218,78.4713657 L42.8315084,78.4713657 C43.627889,78.4713657 44.2735302,77.8257245 44.2735302,77.0293439 C44.2735302,76.2329633 43.627889,75.5873221 42.8315084,75.5873221 Z" id="Path" fill="#0067C5"></path>
                    <path d="M88.2538494,17.9991239 L62.6579623,17.9991239 C61.8615818,17.9991239 61.2159405,17.3534827 61.2159405,16.5571021 C61.2159405,15.7607215 61.8615818,15.1150803 62.6579623,15.1150803 L88.2538494,15.1150803 C89.0502299,15.1150803 89.6958712,15.7607215 89.6958712,16.5571021 C89.6958712,17.3534827 89.0502299,17.9991239 88.2538494,17.9991239 Z" id="Path" fill="#FFF9DF"></path>
                    <path d="M68.9769019,28.7616056 L62.6579623,28.7616056 C61.8615818,28.7616056 61.2159405,28.1159643 61.2159405,27.3195837 C61.2159405,26.5232032 61.8615818,25.8775619 62.6579623,25.8775619 L68.9769019,25.8775619 C69.7732825,25.8775619 70.4189237,26.5232032 70.4189237,27.3195837 C70.4189237,28.1159643 69.7734747,28.7616056 68.9769019,28.7616056 Z" id="Path" fill="#FFF9DF"></path>
                </g>
            </g>
        </g>
    </g>
</svg>