<?xml version="1.0" encoding="UTF-8"?>
<svg width="76px" height="76px" viewBox="0 0 76 76" version="1.1" xmlns="http://www.w3.org/2000/svg" xmlns:xlink="http://www.w3.org/1999/xlink">
    <!-- Generator: Sketch 62 (91390) - https://sketch.com -->
    <title>layers (1)</title>
    <desc>Created with Sketch.</desc>
    <defs>
        <linearGradient x1="50%" y1="100%" x2="50%" y2="-0.000118483553%" id="linearGradient-1">
            <stop stop-color="#FD3A84" offset="0%"></stop>
            <stop stop-color="#FFA68D" offset="100%"></stop>
        </linearGradient>
        <linearGradient x1="50%" y1="100%" x2="50%" y2="-0.000119047761%" id="linearGradient-2">
            <stop stop-color="#FFC2CC" offset="0%"></stop>
            <stop stop-color="#FFF2F4" offset="100%"></stop>
        </linearGradient>
        <linearGradient x1="50%" y1="100%" x2="50%" y2="-9.22510076e-05%" id="linearGradient-3">
            <stop stop-color="#FD3A84" offset="0%"></stop>
            <stop stop-color="#FFA68D" offset="100%"></stop>
        </linearGradient>
    </defs>
    <g id="Page-1" stroke="none" stroke-width="1" fill="none" fill-rule="evenodd">
        <g id="Home_Page_New" transform="translate(-1289.000000, -1763.000000)" fill-rule="nonzero">
            <g id="Group-4-Copy-2" transform="translate(1247.000000, 1702.000000)">
                <g id="layers-(1)" transform="translate(42.000000, 61.000000)">
                    <path d="M38,76 C37.6585938,76 37.3171875,75.9219628 37.0041328,75.7657404 L1.23069531,57.848289 C0.4761875,57.4708379 0,56.7030529 0,55.8613769 C0,55.0197009 0.4761875,54.2519159 1.23069531,53.8744648 L19.1916328,44.9897781 C19.8178906,44.6774814 20.5571094,44.6774814 21.1833672,44.9897781 L38,53.3778108 L54.8166328,44.9897781 C55.4428906,44.6774814 56.1821094,44.6774814 56.8083672,44.9897781 L74.7693047,53.8744648 C75.5238125,54.2519159 76,55.0197009 76,55.8613769 C76,56.7030529 75.5238125,57.4708379 74.7693047,57.848289 L38.9958672,75.7657404 C38.6828125,75.9219628 38.3414062,76 38,76 Z" id="Path" fill="url(#linearGradient-1)"></path>
                    <path d="M38,58.2666667 C37.6585938,58.2666667 37.3171875,58.1882579 37.0041328,58.0312916 L1.23069531,40.1773021 C0.4761875,39.7980536 0,39.0266124 0,38.1809285 C0,37.3352445 0.4761875,36.5638034 1.23069531,36.1845549 L19.1916328,27.2575601 C19.8178906,26.9437763 20.5571094,26.9437763 21.1833672,27.2575601 L38,35.6855359 L54.8166328,27.2575601 C55.4428906,26.9437763 56.1821094,26.9437763 56.8083672,27.2575601 L74.7693047,36.1845549 C75.5238125,36.5638034 76,37.3352445 76,38.1809285 C76,39.0266124 75.5238125,39.7980536 74.7693047,40.1773021 L38.9958672,58.0312916 C38.6828125,58.1882579 38.3414062,58.2666667 38,58.2666667 Z" id="Path" fill="url(#linearGradient-2)"></path>
                    <path d="M38,39.6888889 C37.6585938,39.6888889 37.3171875,39.6117078 37.0041328,39.4571993 L1.23069531,21.8827673 C0.4761875,21.5094571 0,20.7500952 0,19.9176529 C0,19.0852107 0.4761875,18.3258488 1.23069531,17.9525385 L37.0041328,0.231652981 C37.6303906,-0.0772176604 38.3696094,-0.0772176604 38.9958672,0.231652981 L74.7693047,17.9525385 C75.5238125,18.3258488 76,19.0852107 76,19.9176529 C76,20.7500952 75.5238125,21.5094571 74.7693047,21.8827673 L38.9958672,39.4571993 C38.6828125,39.6117078 38.3414062,39.6888889 38,39.6888889 Z" id="Path" fill="url(#linearGradient-3)"></path>
                </g>
            </g>
        </g>
    </g>
</svg>