<?xml version="1.0" encoding="UTF-8"?>
<svg width="88px" height="83px" viewBox="0 0 88 83" version="1.1" xmlns="http://www.w3.org/2000/svg" xmlns:xlink="http://www.w3.org/1999/xlink">
    <!-- Generator: Sketch 62 (91390) - https://sketch.com -->
    <title>attendance</title>
    <desc>Created with Sketch.</desc>
    <g id="Page-1" stroke="none" stroke-width="1" fill="none" fill-rule="evenodd">
        <g id="Home_Page_New" transform="translate(-225.000000, -2201.000000)" fill-rule="nonzero">
            <g id="Group-4-Copy-5" transform="translate(183.000000, 2147.000000)">
                <g id="attendance" transform="translate(42.000000, 54.000000)">
                    <path d="M41.4406667,71.6607833 C40.9515038,69.2505193 39.3800259,67.199619 37.18,66.1002833 L27.8355,62.11095 L27.8355,61.8669333 C23.3687017,63.9552762 18.2057983,63.9552762 13.739,61.8669333 L13.739,62.11095 L4.3945,66.1002833 C1.89709814,67.3480762 0.231361765,69.8081124 -5.21064673e-15,72.5902833 L-5.21064673e-15,82.7506167 L41.5745,82.7506167 L41.5745,72.5902833 C41.5495821,72.2779324 41.5048813,71.9674761 41.4406667,71.6607833 L41.4406667,71.6607833 Z" id="Path" fill="#50A6EA"></path>
                    <path d="M9.8945,66.1002833 L17.1081167,63.0202833 C15.9469941,62.757586 14.8174687,62.370854 13.739,61.86675 L13.739,62.1107667 L4.3945,66.1001 C1.89704543,67.3479262 0.231300117,69.8080451 1.30266168e-15,72.5902833 L1.30266168e-15,82.7506167 L5.5,82.7506167 L5.5,72.5902833 C5.73136176,69.8081124 7.39709814,67.3480762 9.8945,66.1002833 L9.8945,66.1002833 Z" id="Path" fill="#72BCEF"></path>
                    <path d="M84.3333333,3.49195 L34.8406667,3.49195 C32.8156226,3.49195 31.174,5.13357258 31.174,7.15861667 L31.174,17.5407833 C33.8570666,20.3608131 35.3513199,24.1056377 35.3466667,27.9981167 L35.3466667,33.8006167 L35.706,33.8006167 C36.9464222,33.8966503 37.9840195,34.7803101 38.2763333,35.9896167 C38.5280589,37.015769 38.3434799,38.1003524 37.7664862,38.9854697 C37.1894926,39.870587 36.2716353,40.4771582 35.2311667,40.66095 L35.2311667,42.5456167 C35.23629,46.3443404 33.7834058,50.0001751 31.1721667,52.7591167 L31.174,52.76095 L31.174,63.5372833 L37.18,66.1002833 C39.3800259,67.199619 40.9515038,69.2505193 41.4406667,71.6607835 L84.3333333,71.6607835 C85.3058833,71.6607835 86.2386839,71.2748606 86.9263805,70.5871639 C87.6140772,69.8994672 88.0000002,68.9666666 88.0000002,67.9941167 L88.0000002,7.15861667 C88.0000002,5.13357258 86.3583774,3.49195 84.3333333,3.49195 L84.3333333,3.49195 Z" id="Path" fill="#E5F5FD"></path>
                    <circle id="Oval" fill="#49C160" cx="49.8428333" cy="26.0181167" r="11"></circle>
                    <path d="M42.5095,26.0179333 C42.5113925,20.6512064 46.3847165,16.0687543 51.6761667,15.1730333 C47.3640788,14.4413691 43.0281918,16.3338643 40.6326626,19.9932186 C38.2371333,23.6525729 38.2371333,28.3834771 40.6326626,32.0428314 C43.0281918,35.7021857 47.3640788,37.5946809 51.6761667,36.8630167 C46.3842895,35.967913 42.5106233,31.3849785 42.5095,26.0179333 L42.5095,26.0179333 Z" id="Path" fill="#5AE070"></path>
                    <path d="M35.3466667,33.8006167 L35.3466667,33.9692833 C35.3466667,33.9692833 22.3648333,36.2572833 13.6601667,28.50045 C11.8725901,28.6508693 10.0777219,28.6961695 8.28483333,28.6361167 L7.87966667,35.2856167 C7.87163933,35.3882598 7.81276777,35.4800718 7.72283716,35.5301971 C7.63290655,35.5803223 7.52385557,35.5821065 7.43233333,35.53495 L5.63566667,34.6127833 C5.24985059,34.4138542 4.99556922,34.0282636 4.96466667,33.5952833 L4.96466667,27.9981167 C4.96466667,19.6083591 11.7659091,12.8071169 20.1556667,12.8071169 C28.5454242,12.8071169 35.3466667,19.6083591 35.3466667,27.9981167 L35.3466667,33.8006167 Z" id="Path" fill="#4A5160"></path>
                    <path d="M13.0808333,17.2566167 C15.4832199,14.8502951 18.6255531,13.3225244 22.0018333,12.9193167 C21.3892618,12.8448124 20.7727523,12.8073443 20.1556667,12.8071167 C11.7660348,12.8074204 4.9649704,19.6084848 4.96466667,27.9981167 L4.96466667,33.5952833 C4.99556922,34.0282636 5.24985059,34.4138542 5.63566667,34.6127833 L7.43233333,35.53495 C7.52386551,35.5820079 7.63286636,35.5801757 7.72276526,35.5300681 C7.81266417,35.4799605 7.87155021,35.3882164 7.87966667,35.2856167 C7.87966667,35.2856167 7.09005,23.2466667 13.0808333,17.2566167 L13.0808333,17.2566167 Z" id="Path" fill="#58606D"></path>
                    <path d="M27.8355,55.41195 L27.8355,61.8671167 C23.3686622,63.9552818 18.2058378,63.9552818 13.739,61.8671167 L13.739,55.8922833 C18.220949,58.1067793 23.5146881,57.926397 27.8355,55.41195 L27.8355,55.41195 Z" id="Path" fill="#EFC597"></path>
                    <path d="M17.4056667,61.8669333 L17.4056667,57.1429833 C16.1339085,56.888598 14.90112,56.4680938 13.739,55.8922833 L13.739,61.8669333 C16.5087425,63.1618518 19.5817186,63.6686122 22.6205833,63.3315833 C20.8139089,63.1316785 19.0522351,62.6368987 17.4056667,61.8669333 L17.4056667,61.8669333 Z" id="Path" fill="#D8AD82"></path>
                    <path d="M27.8355,55.41195 C23.2304277,58.095223 17.5422195,58.1118592 12.9215306,55.4555687 C8.30084171,52.7992782 5.45277896,47.8754049 5.45416667,42.5456167 L5.45416667,40.66095 C4.41447243,40.4754935 3.4976217,39.868662 2.92064191,38.9840985 C2.34366212,38.0995351 2.15784189,37.0158698 2.40716667,35.9896167 C2.70031219,34.7800885 3.73849205,33.8965626 4.97933333,33.8006167 L4.99583333,33.79695 C5.07991856,34.1491959 5.31361096,34.4471705 5.63566667,34.6127833 L7.43233333,35.53495 C7.52385557,35.5821065 7.63290655,35.5803223 7.72283716,35.5301971 C7.81276777,35.4800718 7.87163933,35.3882598 7.87966667,35.2856167 L8.28483333,28.6361167 C10.0777219,28.6961695 11.8725901,28.6508693 13.6601667,28.50045 C22.3648333,36.2572833 35.3466667,33.9692833 35.3466667,33.9692833 L35.3466667,33.8006167 L35.706,33.8006167 C36.9464222,33.8966503 37.9840195,34.7803101 38.2763333,35.9896167 C38.5280589,37.015769 38.3434799,38.1003524 37.7664862,38.9854697 C37.1894926,39.870587 36.2716353,40.4771582 35.2311667,40.66095 L35.2311667,42.5456167 C35.23629,46.3443404 33.7834058,50.0001751 31.1721667,52.7591167 C31.075,52.86545 30.9723333,52.96995 30.8696667,53.0726167 C29.9631665,53.9797217 28.9433485,54.7659983 27.8355,55.41195 L27.8355,55.41195 Z" id="Path" fill="#FFD8B7"></path>
                    <path d="M17.4056667,55.8922833 C12.3306357,53.3809266 9.11959871,48.2080234 9.12083333,42.5456167 L9.12083333,40.66095 C8.08113909,40.4754935 7.16428837,39.868662 6.58730857,38.9840985 C6.01032878,38.0995351 5.82450855,37.0158698 6.07383333,35.9896167 C6.15525098,35.6544341 6.29600967,35.3365319 6.48945,35.05095 L5.63566667,34.6133333 C5.31361096,34.4477205 5.07991856,34.1497459 4.99583333,33.7975 L4.97933333,33.8011667 C3.73849205,33.8971126 2.70031219,34.7806385 2.40716667,35.9901667 C2.15569315,37.0165715 2.34061024,38.1012916 2.91794881,38.9864052 C3.49528739,39.8715187 4.4134675,40.4779488 5.45416667,40.6615 L5.45416667,42.5461667 C5.45222001,46.4954388 7.0202002,50.2835182 9.81275766,53.0760757 C12.6053151,55.8686331 16.3933945,57.4366133 20.3426667,57.4346685 C20.9545366,57.4341651 21.5658058,57.3963281 22.1730667,57.3213667 C20.5146585,57.1175262 18.9027398,56.6343349 17.4056667,55.8922833 L17.4056667,55.8922833 Z" id="Path" fill="#E8BC9E"></path>
                    <g id="Group" transform="translate(40.883333, 16.500000)" fill="#B9C8DB">
                        <path d="M38.0570667,20.8424333 L30.0149667,20.8424333 C29.4074534,20.8424333 28.9149667,20.3499466 28.9149667,19.7424333 C28.9149667,19.1349201 29.4074534,18.6424333 30.0149667,18.6424333 L38.0570667,18.6424333 C38.6645799,18.6424333 39.1570667,19.1349201 39.1570667,19.7424333 C39.1570667,20.3499466 38.6645799,20.8424333 38.0570667,20.8424333 L38.0570667,20.8424333 Z" id="Path"></path>
                        <path d="M25.2765333,20.8424333 L22.5787833,20.8424333 C21.9712701,20.8424333 21.4787833,20.3499466 21.4787833,19.7424333 C21.4787833,19.1349201 21.9712701,18.6424333 22.5787833,18.6424333 L25.2765333,18.6424333 C25.8840466,18.6424333 26.3765333,19.1349201 26.3765333,19.7424333 C26.3765333,20.3499466 25.8840466,20.8424333 25.2765333,20.8424333 L25.2765333,20.8424333 Z" id="Path"></path>
                        <path d="M38.0570667,32.7400333 L35.3263167,32.7400333 C34.7188034,32.7400333 34.2263167,32.2475466 34.2263167,31.6400333 C34.2263167,31.0325201 34.7188034,30.5400333 35.3263167,30.5400333 L38.0570667,30.5400333 C38.6645799,30.5400333 39.1570667,31.0325201 39.1570667,31.6400333 C39.1570667,32.2475466 38.6645799,32.7400333 38.0570667,32.7400333 L38.0570667,32.7400333 Z" id="Path"></path>
                        <path d="M31.5217833,32.7400333 L16.9543,32.7400333 C16.3467868,32.7400333 15.8543,32.2475466 15.8543,31.6400333 C15.8543,31.0325201 16.3467868,30.5400333 16.9543,30.5400333 L31.5217833,30.5400333 C32.1292966,30.5400333 32.6217833,31.0325201 32.6217833,31.6400333 C32.6217833,32.2475466 32.1292966,32.7400333 31.5217833,32.7400333 L31.5217833,32.7400333 Z" id="Path"></path>
                        <path d="M13.0967833,32.7400333 L12.1139333,32.7400333 C11.5064201,32.7400333 11.0139333,32.2475466 11.0139333,31.6400333 C11.0139333,31.0325201 11.5064201,30.5400333 12.1139333,30.5400333 L13.0967833,30.5400333 C13.7042966,30.5400333 14.1967833,31.0325201 14.1967833,31.6400333 C14.1967833,32.2475466 13.7042966,32.7400333 13.0967833,32.7400333 Z" id="Path"></path>
                        <path d="M7.3755,32.7400333 L1.13886667,32.7400333 C0.531353442,32.7400333 0.0388666667,32.2475466 0.0388666667,31.6400333 C0.0388666667,31.0325201 0.531353442,30.5400333 1.13886667,30.5400333 L7.3755,30.5400333 C7.98301322,30.5400333 8.4755,31.0325201 8.4755,31.6400333 C8.4755,32.2475466 7.98301322,32.7400333 7.3755,32.7400333 Z" id="Path"></path>
                        <path d="M38.0570667,43.73655 L31.7623167,43.73655 C31.1548034,43.73655 30.6623167,43.2440632 30.6623167,42.63655 C30.6623167,42.0290368 31.1548034,41.53655 31.7623167,41.53655 L38.0570667,41.53655 C38.6645799,41.53655 39.1570667,42.0290368 39.1570667,42.63655 C39.1570667,43.2440632 38.6645799,43.73655 38.0570667,43.73655 Z" id="Path"></path>
                        <path d="M27.8142333,43.73655 L27.0233333,43.73655 C26.4158201,43.73655 25.9233333,43.2440632 25.9233333,42.63655 C25.9233333,42.0290368 26.4158201,41.53655 27.0233333,41.53655 L27.8136833,41.53655 C28.4211966,41.53655 28.9136833,42.0290368 28.9136833,42.63655 C28.9136833,43.2440632 28.4211966,43.73655 27.8136833,43.73655 L27.8142333,43.73655 Z" id="Path"></path>
                        <path d="M23.9275667,43.73655 L17.9483333,43.73655 C17.3408201,43.73655 16.8483333,43.2440632 16.8483333,42.63655 C16.8483333,42.0290368 17.3408201,41.53655 17.9483333,41.53655 L23.92775,41.53655 C24.5352632,41.53655 25.02775,42.0290368 25.02775,42.63655 C25.02775,43.2440632 24.5352632,43.73655 23.92775,43.73655 L23.9275667,43.73655 Z" id="Path"></path>
                        <path d="M13.0967833,43.73655 L1.13886667,43.73655 C0.531353442,43.73655 0.0388666667,43.2440632 0.0388666667,42.63655 C0.0388666667,42.0290368 0.531353442,41.53655 1.13886667,41.53655 L13.0967833,41.53655 C13.7042966,41.53655 14.1967833,42.0290368 14.1967833,42.63655 C14.1967833,43.2440632 13.7042966,43.73655 13.0967833,43.73655 Z" id="Path"></path>
                        <path d="M38.0570667,11.4766667 L37.3472,11.4766667 C36.7396868,11.4766667 36.2472,10.9841799 36.2472,10.3766667 C36.2472,9.76915344 36.7396868,9.27666667 37.3472,9.27666667 L38.0570667,9.27666667 C38.6645799,9.27666667 39.1570667,9.76915344 39.1570667,10.3766667 C39.1570667,10.9841799 38.6645799,11.4766667 38.0570667,11.4766667 L38.0570667,11.4766667 Z" id="Path"></path>
                        <path d="M32.60895,11.4766667 L24.81215,11.4766667 C24.2046368,11.4766667 23.71215,10.9841799 23.71215,10.3766667 C23.71215,9.76915344 24.2046368,9.27666667 24.81215,9.27666667 L32.60895,9.27666667 C33.2164632,9.27666667 33.70895,9.76915344 33.70895,10.3766667 C33.70895,10.9841799 33.2164632,11.4766667 32.60895,11.4766667 L32.60895,11.4766667 Z" id="Path"></path>
                        <path d="M38.0570667,2.31 L30.1981167,2.31 C29.5906034,2.31 29.0981167,1.81751322 29.0981167,1.21 C29.0981167,0.602486775 29.5906034,0.11 30.1981167,0.11 L38.0570667,0.11 C38.6645799,0.11 39.1570667,0.602486775 39.1570667,1.21 C39.1570667,1.81751322 38.6645799,2.31 38.0570667,2.31 Z" id="Path"></path>
                        <path d="M25.4598667,2.31 L24.81215,2.31 C24.2046368,2.31 23.71215,1.81751322 23.71215,1.21 C23.71215,0.602486775 24.2046368,0.11 24.81215,0.11 L25.4598667,0.11 C26.0673799,0.11 26.5598667,0.602486775 26.5598667,1.21 C26.5598667,1.81751322 26.0673799,2.31 25.4598667,2.31 L25.4598667,2.31 Z" id="Path"></path>
                    </g>
                    <path d="M47.3936833,31.1366 C47.1019318,31.1366 46.8221169,31.0207653 46.6158,30.8144833 L43.4808,27.6785667 C43.1966338,27.4019779 43.0833345,26.9938485 43.184258,26.6103564 C43.2851814,26.2268642 43.584704,25.927377 43.968208,25.8264987 C44.351712,25.7256204 44.759828,25.8389679 45.0363833,26.1231667 L47.3944167,28.4810167 L54.6516667,21.2230333 C55.0822358,20.7994206 55.7738364,20.8022368 56.2009415,21.2293418 C56.6280466,21.6564469 56.6308627,22.3480475 56.20725,22.7786167 L48.1713833,30.8144833 C47.9651113,31.0207204 47.6853713,31.1366 47.3936833,31.1366 L47.3936833,31.1366 Z" id="Path" fill="#F4F8FC"></path>
                    <polygon id="Path" fill="#475673" points="43.8991667 0.116783333 77.1081667 0.116783333 77.1081667 6.41978333 43.8991667 6.41978333"></polygon>
                </g>
            </g>
        </g>
    </g>
</svg>